HIERARCHY
ROOT hip
{
	OFFSET 0.000000 0.000000 0.000000
	CHANNELS 6 Xposition Yposition Zposition Zrotation Yrotation Xrotation 
	JOINT lhipjoint
	{
		OFFSET 0.000000 0.000000 0.000000
		CHANNELS 3 Zrotation Yrotation Xrotation
		JOINT lfemur
		{
			OFFSET 1.363060 -1.794630 0.839290
			CHANNELS 3 Zrotation Yrotation Xrotation
			JOINT ltibia
			{
				OFFSET 2.448110 -6.726130 0.000000
				CHANNELS 3 Zrotation Yrotation Xrotation
				JOINT lfoot
				{
					OFFSET 2.562200 -7.039590 0.000000
					CHANNELS 3 Zrotation Yrotation Xrotation
					JOINT ltoes
					{
						OFFSET 0.157640 -0.433110 2.322550
						CHANNELS 3 Zrotation Yrotation Xrotation
						End Site
						{
							OFFSET 0.000000 0.000000 0.000000
						}
					}
				}
			}
		}
	}
	JOINT rhipjoint
	{
		OFFSET 0.000000 0.000000 0.000000
		CHANNELS 3 Zrotation Yrotation Xrotation
		JOINT rfemur
		{
			OFFSET -1.305520 -1.794630 0.839290
			CHANNELS 3 Zrotation Yrotation Xrotation
			JOINT rtibia
			{
				OFFSET -2.542530 -6.985550 0.000000
				CHANNELS 3 Zrotation Yrotation Xrotation
				JOINT rfoot
				{
					OFFSET -2.568260 -7.056230 0.000000
					CHANNELS 3 Zrotation Yrotation Xrotation
					JOINT rtoes
					{
						OFFSET -0.164730 -0.452590 2.363150
						CHANNELS 3 Zrotation Yrotation Xrotation
						End Site
						{
							OFFSET 0.000000 0.000000 0.000000
						}
					}
				}
			}
		}
	}
	JOINT lowerback
	{
		OFFSET 0.000000 0.000000 0.000000
		CHANNELS 3 Zrotation Yrotation Xrotation
		JOINT upperback
		{
			OFFSET 0.028270 2.035590 -0.193380
			CHANNELS 3 Zrotation Yrotation Xrotation
			JOINT thorax
			{
				OFFSET 0.056720 2.048850 -0.042750
				CHANNELS 3 Zrotation Yrotation Xrotation
				JOINT lowerneck
				{
					OFFSET 0.000000 0.000000 0.000000
					CHANNELS 3 Zrotation Yrotation Xrotation
					JOINT upperneck
					{
						OFFSET -0.054170 1.746240 0.172020
						CHANNELS 3 Zrotation Yrotation Xrotation
						JOINT head
						{
							OFFSET 0.104070 1.761360 -0.123970
							CHANNELS 3 Zrotation Yrotation Xrotation
							End Site
							{
								OFFSET 0.000000 0.000000 0.000000
							}
						}
					}
				}
				JOINT lclavicle
				{
					OFFSET 0.000000 0.000000 0.000000
					CHANNELS 3 Zrotation Yrotation Xrotation
					JOINT lhumerus
					{
						OFFSET 3.362410 1.200890 -0.311210
						CHANNELS 3 Zrotation Yrotation Xrotation
						JOINT lradius
						{
							OFFSET 4.983000 -0.000000 -0.000000
							CHANNELS 3 Zrotation Yrotation Xrotation
							JOINT lwrist
							{
								OFFSET 3.483560 -0.000000 -0.000000
								CHANNELS 3 Zrotation Yrotation Xrotation
								JOINT lhand
								{
									OFFSET 0.000000 0.000000 0.000000
									CHANNELS 3 Zrotation Yrotation Xrotation
									JOINT lfingers
									{
										OFFSET 0.715260 -0.000000 -0.000000
										CHANNELS 3 Zrotation Yrotation Xrotation
										End Site
										{
											OFFSET 0.000000 0.000000 0.000000
										}
									}
								}
								JOINT lthumb
								{
									OFFSET 0.000000 0.000000 0.000000
									CHANNELS 3 Zrotation Yrotation Xrotation
									End Site
									{
										OFFSET 0.000000 0.000000 0.000000
									}
								}
							}
						}
					}
				}
				JOINT rclavicle
				{
					OFFSET 0.000000 0.000000 0.000000
					CHANNELS 3 Zrotation Yrotation Xrotation
					JOINT rhumerus
					{
						OFFSET -3.136600 1.374050 -0.404650
						CHANNELS 3 Zrotation Yrotation Xrotation
						JOINT rradius
						{
							OFFSET -5.241900 -0.000000 -0.000000
							CHANNELS 3 Zrotation Yrotation Xrotation
							JOINT rwrist
							{
								OFFSET -3.444170 -0.000000 -0.000000
								CHANNELS 3 Zrotation Yrotation Xrotation
								JOINT rhand
								{
									OFFSET 0.000000 0.000000 0.000000
									CHANNELS 3 Zrotation Yrotation Xrotation
									JOINT rfingers
									{
										OFFSET -0.622530 -0.000000 -0.000000
										CHANNELS 3 Zrotation Yrotation Xrotation
										End Site
										{
											OFFSET 0.000000 0.000000 0.000000
										}
									}
								}
								JOINT rthumb
								{
									OFFSET 0.000000 0.000000 0.000000
									CHANNELS 3 Zrotation Yrotation Xrotation
									End Site
									{
										OFFSET 0.000000 0.000000 0.000000
									}
								}
							}
						}
					}
				}
			}
		}
	}
}
MOTION
Frames: 10
Frame Time: 0.008333
3.896801 16.827711 2.576489 -170.190332 2.388971 179.734320 4.179493 3.544726 0.452126 -5.154162 3.895889 -24.446187 5.707772 14.319065 45.095035 3.957673 -19.505646 1.960209 1.758700 -8.344200 -23.764600 -6.228725 -4.258549 -1.497828 25.981932 -16.646884 -21.551728 -8.199118 -14.842946 50.071847 -0.546724 10.492072 2.628096 -4.197500 -12.418700 37.229700 -2.709734 1.518730 5.736954 0.953321 1.965609 -3.260722 2.507781 1.377781 0.194699 0.899165 -18.387030 0.954485 6.775492 -25.138473 10.668470 1.330800 -12.241500 -4.774100 0.339471 -8.082672 4.133434 -59.867801 -10.385857 53.448503 133.948150 -41.527513 -95.981413 1.519905 0.760220 -6.293787 29.108876 -29.854652 -15.050000 -7.125000 0.000000 0.000000 -2.228800 -4.194100 2.387500 5.508031 8.883680 5.134174 67.032164 20.255195 73.058319 -130.122765 40.253837 -90.318206 0.535552 -2.188261 21.683066 -27.717434 3.375471 -3.000500 7.125000 0.000000 0.000000 -1.747700 -23.791600 -0.894500 
3.942169 16.821907 2.576876 -169.913563 2.067179 179.796054 4.176231 3.529718 0.467565 -4.669886 3.983834 -24.831464 5.746448 14.395173 45.272553 3.965833 -19.707558 2.029188 1.816500 -8.472900 -24.159900 -6.255345 -4.243897 -1.518291 25.847737 -16.206478 -21.049081 -7.965758 -14.611730 49.102708 -0.540097 10.112476 2.573823 -4.171000 -12.384500 37.106200 -2.611135 1.425521 5.687557 0.988701 1.840997 -3.269744 2.638868 1.317019 0.186462 0.908863 -18.357693 0.990282 6.737665 -25.098684 10.580798 1.315200 -12.216100 -4.856400 0.340856 -8.086141 4.138744 -59.680879 -10.126540 53.283413 134.052399 -41.495684 -96.103485 1.530407 0.740623 -6.213458 28.942427 -29.876021 -14.942500 -7.125000 0.000000 0.000000 -2.326900 -4.147800 2.491100 5.559770 8.902503 5.132994 66.757891 20.084796 73.101509 -130.202583 40.252668 -90.411293 0.529566 -2.163744 21.515589 -27.592992 3.541206 -3.061200 7.125000 0.000000 0.000000 -1.632400 -23.636900 -0.841300 
3.988214 16.810492 2.579101 -169.654556 1.769669 179.845213 4.170579 3.513731 0.481926 -4.193371 4.166410 -25.278819 5.806941 14.493325 45.528225 3.980004 -19.987989 2.049256 1.908000 -8.671700 -24.773500 -6.283751 -4.227967 -1.537395 25.672426 -15.717508 -20.512196 -7.751522 -14.389567 48.191661 -0.532855 9.736160 2.445515 -4.140300 -12.344800 36.962900 -2.518269 1.328565 5.649008 1.028073 1.709123 -3.281351 2.823563 1.258553 0.137987 0.769862 -18.286066 1.124869 6.760735 -25.034102 10.458865 1.360000 -12.179100 -4.931700 0.329937 -8.114155 4.153952 -59.551871 -9.840731 53.117236 134.159832 -41.460855 -96.227110 1.538847 0.726364 -6.190945 28.752301 -29.891286 -14.820400 -7.125000 0.000000 0.000000 -2.437500 -4.093400 2.607600 5.601677 8.911450 5.136944 66.429851 19.850972 73.139063 -130.318517 40.241585 -90.546441 0.522690 -2.133564 21.378151 -27.463061 3.724283 -3.125900 7.125000 0.000000 0.000000 -1.511100 -23.470700 -0.784500 
4.033485 16.794241 2.581906 -169.364363 1.504393 179.878496 4.165155 3.494997 0.496466 -3.666571 4.371198 -25.748904 5.884945 14.611415 45.858748 3.990424 -20.308220 2.136019 1.930900 -8.720700 -24.925500 -6.312405 -4.208774 -1.564153 25.495617 -15.257470 -19.928279 -7.549367 -14.173097 47.320351 -0.525879 9.431471 2.303939 -4.110900 -12.306600 36.825300 -2.350907 1.232915 5.598384 1.066479 1.583210 -3.288226 2.965588 1.202264 0.117598 0.632538 -18.228606 1.272725 6.754256 -24.978433 10.333403 1.404900 -12.144100 -5.018000 0.315715 -8.128358 4.171086 -59.427563 -9.594224 52.937848 134.265504 -41.434931 -96.344568 1.543696 0.714362 -6.196180 28.482069 -29.843611 -14.625400 -7.125000 0.000000 0.000000 -2.580200 -3.951800 2.754600 5.641494 8.914808 5.147863 66.105169 19.653296 73.123790 -130.501676 40.202421 -90.759588 0.519304 -2.099813 21.176242 -27.235063 3.883871 -3.161300 7.125000 0.000000 0.000000 -1.319300 -23.343500 -0.688700 
4.079337 16.772960 2.585582 -169.110441 1.271415 179.883071 4.157570 3.475233 0.509051 -3.169477 4.661579 -26.246945 5.983186 14.747770 46.266091 3.999769 -20.680122 2.238098 1.952900 -8.767300 -25.070100 -6.336768 -4.183832 -1.595934 25.236059 -14.822816 -19.322273 -7.361561 -13.969356 46.504715 -0.518558 9.196643 2.188157 -4.078100 -12.263600 36.670800 -2.198427 1.123257 5.561778 1.105611 1.440002 -3.292554 3.124669 1.140007 0.087472 0.403911 -18.133226 1.514826 6.798787 -24.896144 10.136987 1.504100 -12.094700 -5.132600 0.285744 -8.151382 4.200785 -59.291200 -9.325260 52.712331 134.377912 -41.410842 -96.474449 1.549313 0.701270 -6.264269 28.196094 -29.826324 -14.432300 -7.125000 0.000000 0.000000 -2.737700 -3.835700 2.917900 5.676394 8.902403 5.169725 65.746180 19.488270 73.127747 -130.798124 40.111728 -91.100875 0.521041 -2.056105 20.905565 -26.970042 4.018369 -3.171100 7.125000 0.000000 0.000000 -1.101700 -23.259900 -0.577200 
4.125091 16.747422 2.590032 -168.857695 1.084722 179.887572 4.150833 3.454897 0.523108 -2.663125 4.961796 -26.760680 6.100406 14.899790 46.738217 4.008125 -21.055111 2.318232 1.944800 -8.750100 -25.016800 -6.356653 -4.158099 -1.626905 24.953018 -14.431324 -18.740389 -7.186786 -13.776905 45.739404 -0.511518 9.019274 2.086516 -4.042500 -12.216700 36.502900 -2.009160 1.030112 5.517509 1.138751 1.317624 -3.300021 3.223239 1.088728 0.032383 0.217621 -18.048090 1.803395 6.837044 -24.816862 9.925628 1.604800 -12.044400 -5.273200 0.255058 -8.174103 4.230275 -59.147321 -9.035342 52.516239 134.519703 -41.375813 -96.626321 1.551135 0.686900 -6.319817 27.855159 -29.743988 -14.181900 -7.125000 0.000000 0.000000 -2.912400 -3.635400 3.095100 5.708552 8.897023 5.196675 65.390513 19.348292 73.031269 -131.104082 40.007434 -91.463643 0.524818 -2.012944 20.659975 -26.686104 4.072691 -3.135600 7.125000 0.000000 0.000000 -0.876800 -23.268500 -0.459200 
4.171233 16.716758 2.595449 -168.614826 0.945393 179.859564 4.140188 3.433823 0.537151 -2.140848 5.297313 -27.265984 6.236678 15.067124 47.275928 4.015187 -21.478985 2.394229 1.929200 -8.717000 -24.914000 -6.377074 -4.127160 -1.663838 24.631885 -14.051676 -18.118046 -7.024321 -13.594583 45.023544 -0.505340 8.924647 2.060961 -4.052000 -12.229300 36.548100 -1.825878 0.920812 5.500314 1.178474 1.176987 -3.304979 3.368979 1.028604 -0.018267 -0.004428 -17.932046 2.101950 6.868768 -24.705846 9.699263 1.706100 -11.975100 -5.424000 0.224548 -8.194703 4.260500 -59.033169 -8.745472 52.275786 134.697857 -41.321287 -96.814827 1.549720 0.674627 -6.429845 27.425422 -29.631228 -13.869300 -7.125000 0.000000 0.000000 -3.131300 -3.381500 3.315400 5.750762 8.884515 5.231520 64.951254 19.302714 72.941347 -131.385226 39.906915 -91.814191 0.531376 -1.964485 20.348474 -26.455479 4.025410 -3.052700 7.125000 0.000000 0.000000 -0.695400 -23.391500 -0.362200 
4.216504 16.682321 2.601446 -168.388846 0.850781 179.811881 4.127897 3.413096 0.550866 -1.629095 5.621150 -27.751968 6.395796 15.246369 47.868664 4.029875 -21.882568 2.297194 1.987900 -8.840800 -25.298600 -6.392712 -4.092169 -1.705173 24.255327 -13.739127 -17.510098 -6.872084 -13.425022 44.355705 -0.499628 8.921475 2.093092 -3.983700 -12.138700 36.224500 -1.623729 0.810460 5.500359 1.217432 1.038318 -3.307784 3.495119 0.966773 -0.051726 -0.184132 -17.815243 2.348974 6.865318 -24.584161 9.482678 1.778000 -11.898200 -5.574700 0.198282 -8.203254 4.284706 -58.941357 -8.451079 52.011803 134.898952 -41.255863 -97.026243 1.546184 0.661539 -6.497625 26.994459 -29.502120 -13.554300 -7.125000 0.000000 0.000000 -3.347900 -3.112800 3.530600 5.800770 8.871702 5.270620 64.441993 19.385297 72.798196 -131.612682 39.819461 -92.119728 0.537254 -1.915487 19.964209 -26.238026 3.943257 -2.955500 7.125000 0.000000 0.000000 -0.523000 -23.550100 -0.270500 
4.261292 16.642854 2.608605 -168.183736 0.810717 179.768909 4.114332 3.392827 0.565777 -1.132755 5.938590 -28.249019 6.575380 15.438344 48.518889 4.047065 -22.246028 2.116453 2.056500 -8.982800 -25.741500 -6.405987 -4.054726 -1.745472 23.841729 -13.435957 -16.926189 -6.730707 -13.265559 43.730614 -0.493691 8.921118 2.122321 -3.902900 -12.030100 35.838600 -1.443796 0.699368 5.499158 1.256682 0.899300 -3.312107 3.628260 0.902242 -0.075624 -0.316963 -17.694698 2.522264 6.839154 -24.450948 9.288275 1.815700 -11.815600 -5.712700 0.176419 -8.204402 4.300501 -58.831620 -8.124182 51.711594 135.142460 -41.167725 -97.282335 1.540078 0.646786 -6.581674 26.529342 -29.325837 -13.204600 -7.125000 0.000000 0.000000 -3.575600 -2.785500 3.752300 5.860770 8.860066 5.309271 63.878882 19.610971 72.591594 -131.761595 39.757713 -92.355835 0.541939 -1.867104 19.489295 -26.005293 3.849016 -2.852800 7.125000 0.000000 0.000000 -0.337100 -23.719400 -0.173000 
4.303371 16.600291 2.616634 -168.014705 0.829696 179.704592 4.098579 3.372360 0.580319 -0.668060 6.210614 -28.689623 6.775102 15.635201 49.216168 4.069596 -22.523150 1.816075 2.148000 -9.167800 -26.321500 -6.413809 -4.011186 -1.786114 23.333041 -13.131565 -16.350714 -6.600331 -13.119329 43.153028 -0.486889 8.912349 2.203904 -3.876500 -11.994200 35.711300 -1.281186 0.582264 5.533450 1.295349 0.754310 -3.316585 3.760417 0.832473 -0.099458 -0.421890 -17.555563 2.628202 6.790300 -24.288228 9.127895 1.820500 -11.719500 -5.827100 0.159251 -8.202768 4.309137 -58.766401 -7.747117 51.377910 135.409524 -41.067203 -97.562731 1.533219 0.630576 -6.574357 26.070428 -29.154559 -12.866200 -7.125000 0.000000 0.000000 -3.801500 -2.469200 3.970300 5.925936 8.849723 5.348003 63.239482 19.954912 72.305647 -131.842245 39.718682 -92.531877 0.543427 -1.818726 18.958449 -25.748556 3.784486 -2.764400 7.125000 0.000000 0.000000 -0.128500 -23.854100 -0.065600 
